<svg xmlns="http://www.w3.org/2000/svg" xmlns:xlink="http://www.w3.org/1999/xlink" width="2000" zoomAndPan="magnify" viewBox="0 0 1500 1463.999935" height="1952" preserveAspectRatio="xMidYMid meet" version="1.0"><defs><clipPath id="90779ec9d6"><path d="M 710.136719 150.449219 L 1114.632812 150.449219 L 1114.632812 1445.574219 L 710.136719 1445.574219 Z M 710.136719 150.449219 " clip-rule="nonzero"/></clipPath><clipPath id="7db2702816"><path d="M 0.136719 0.449219 L 404.632812 0.449219 L 404.632812 1295.574219 L 0.136719 1295.574219 Z M 0.136719 0.449219 " clip-rule="nonzero"/></clipPath><clipPath id="f13eb6af0a"><rect x="0" width="405" y="0" height="1296"/></clipPath><clipPath id="134e84d049"><path d="M 748.289062 150 L 1481.011719 150 L 1481.011719 1445.574219 L 748.289062 1445.574219 Z M 748.289062 150 " clip-rule="nonzero"/></clipPath><clipPath id="73af2e25b2"><path d="M 1114.648438 150.449219 L 748.289062 1445.574219 L 1481.011719 1445.574219 Z M 1114.648438 150.449219 " clip-rule="nonzero"/></clipPath><clipPath id="59a8f4450b"><path d="M 0.289062 1 L 733.011719 1 L 733.011719 1295.574219 L 0.289062 1295.574219 Z M 0.289062 1 " clip-rule="nonzero"/></clipPath><clipPath id="d3c12eff85"><path d="M 366.648438 0.449219 L 0.289062 1295.574219 L 733.011719 1295.574219 Z M 366.648438 0.449219 " clip-rule="nonzero"/></clipPath><clipPath id="b9f441bdb7"><rect x="0" width="734" y="0" height="1296"/></clipPath><clipPath id="cbdb459a34"><path d="M 0.480469 0.558594 L 1445.507812 0.558594 L 1445.507812 1445.582031 L 0.480469 1445.582031 Z M 0.480469 0.558594 " clip-rule="nonzero"/></clipPath><clipPath id="71cc72d9f7"><path d="M 722.996094 0.558594 C 323.960938 0.558594 0.480469 324.039062 0.480469 723.070312 C 0.480469 1122.101562 323.960938 1445.582031 722.996094 1445.582031 C 1122.027344 1445.582031 1445.507812 1122.101562 1445.507812 723.070312 C 1445.507812 324.039062 1122.027344 0.558594 722.996094 0.558594 Z M 722.996094 0.558594 " clip-rule="nonzero"/></clipPath><clipPath id="5704005637"><path d="M 0.480469 0.558594 L 1445.507812 0.558594 L 1445.507812 1445.582031 L 0.480469 1445.582031 Z M 0.480469 0.558594 " clip-rule="nonzero"/></clipPath><clipPath id="d6f5618c89"><path d="M 722.996094 0.558594 C 323.960938 0.558594 0.480469 324.039062 0.480469 723.070312 C 0.480469 1122.101562 323.960938 1445.582031 722.996094 1445.582031 C 1122.027344 1445.582031 1445.507812 1122.101562 1445.507812 723.070312 C 1445.507812 324.039062 1122.027344 0.558594 722.996094 0.558594 Z M 722.996094 0.558594 " clip-rule="nonzero"/></clipPath><linearGradient x1="0" gradientTransform="matrix(5.644624, 0, 0, 5.644624, 0.482346, 0.558623)" y1="128" x2="255.999999" gradientUnits="userSpaceOnUse" y2="128" id="6ba98690cb"><stop stop-opacity="1" stop-color="rgb(79.998779%, 19.999695%, 19.999695%)" offset="0"/><stop stop-opacity="1" stop-color="rgb(80.076599%, 20.115662%, 20.043945%)" offset="0.0078125"/><stop stop-opacity="1" stop-color="rgb(80.233765%, 20.347595%, 20.132446%)" offset="0.015625"/><stop stop-opacity="1" stop-color="rgb(80.389404%, 20.581055%, 20.220947%)" offset="0.0234375"/><stop stop-opacity="1" stop-color="rgb(80.545044%, 20.812988%, 20.309448%)" offset="0.03125"/><stop stop-opacity="1" stop-color="rgb(80.702209%, 21.046448%, 20.399475%)" offset="0.0390625"/><stop stop-opacity="1" stop-color="rgb(80.857849%, 21.279907%, 20.487976%)" offset="0.046875"/><stop stop-opacity="1" stop-color="rgb(81.015015%, 21.511841%, 20.576477%)" offset="0.0546875"/><stop stop-opacity="1" stop-color="rgb(81.170654%, 21.7453%, 20.664978%)" offset="0.0625"/><stop stop-opacity="1" stop-color="rgb(81.326294%, 21.977234%, 20.753479%)" offset="0.0703125"/><stop stop-opacity="1" stop-color="rgb(81.483459%, 22.210693%, 20.843506%)" offset="0.078125"/><stop stop-opacity="1" stop-color="rgb(81.639099%, 22.442627%, 20.932007%)" offset="0.0859375"/><stop stop-opacity="1" stop-color="rgb(81.796265%, 22.676086%, 21.020508%)" offset="0.09375"/><stop stop-opacity="1" stop-color="rgb(81.951904%, 22.909546%, 21.109009%)" offset="0.101563"/><stop stop-opacity="1" stop-color="rgb(82.107544%, 23.141479%, 21.19751%)" offset="0.109375"/><stop stop-opacity="1" stop-color="rgb(82.264709%, 23.374939%, 21.287537%)" offset="0.117188"/><stop stop-opacity="1" stop-color="rgb(82.420349%, 23.606873%, 21.376038%)" offset="0.125"/><stop stop-opacity="1" stop-color="rgb(82.577515%, 23.840332%, 21.464539%)" offset="0.132812"/><stop stop-opacity="1" stop-color="rgb(82.733154%, 24.072266%, 21.55304%)" offset="0.140625"/><stop stop-opacity="1" stop-color="rgb(82.888794%, 24.305725%, 21.643066%)" offset="0.148438"/><stop stop-opacity="1" stop-color="rgb(83.045959%, 24.539185%, 21.731567%)" offset="0.15625"/><stop stop-opacity="1" stop-color="rgb(83.201599%, 24.771118%, 21.820068%)" offset="0.164062"/><stop stop-opacity="1" stop-color="rgb(83.358765%, 25.004578%, 21.908569%)" offset="0.171875"/><stop stop-opacity="1" stop-color="rgb(83.514404%, 25.236511%, 21.99707%)" offset="0.179688"/><stop stop-opacity="1" stop-color="rgb(83.670044%, 25.469971%, 22.087097%)" offset="0.1875"/><stop stop-opacity="1" stop-color="rgb(83.827209%, 25.70343%, 22.175598%)" offset="0.195313"/><stop stop-opacity="1" stop-color="rgb(83.982849%, 25.935364%, 22.264099%)" offset="0.203125"/><stop stop-opacity="1" stop-color="rgb(84.140015%, 26.168823%, 22.3526%)" offset="0.210938"/><stop stop-opacity="1" stop-color="rgb(84.295654%, 26.400757%, 22.441101%)" offset="0.21875"/><stop stop-opacity="1" stop-color="rgb(84.451294%, 26.634216%, 22.531128%)" offset="0.226562"/><stop stop-opacity="1" stop-color="rgb(84.608459%, 26.86615%, 22.619629%)" offset="0.234375"/><stop stop-opacity="1" stop-color="rgb(84.764099%, 27.099609%, 22.70813%)" offset="0.242188"/><stop stop-opacity="1" stop-color="rgb(84.921265%, 27.333069%, 22.796631%)" offset="0.25"/><stop stop-opacity="1" stop-color="rgb(85.076904%, 27.565002%, 22.886658%)" offset="0.257813"/><stop stop-opacity="1" stop-color="rgb(85.232544%, 27.798462%, 22.975159%)" offset="0.265625"/><stop stop-opacity="1" stop-color="rgb(85.389709%, 28.030396%, 23.06366%)" offset="0.273438"/><stop stop-opacity="1" stop-color="rgb(85.545349%, 28.263855%, 23.152161%)" offset="0.28125"/><stop stop-opacity="1" stop-color="rgb(85.702515%, 28.495789%, 23.240662%)" offset="0.289062"/><stop stop-opacity="1" stop-color="rgb(85.858154%, 28.729248%, 23.330688%)" offset="0.296875"/><stop stop-opacity="1" stop-color="rgb(86.013794%, 28.962708%, 23.419189%)" offset="0.304688"/><stop stop-opacity="1" stop-color="rgb(86.170959%, 29.194641%, 23.50769%)" offset="0.3125"/><stop stop-opacity="1" stop-color="rgb(86.326599%, 29.428101%, 23.596191%)" offset="0.320312"/><stop stop-opacity="1" stop-color="rgb(86.483765%, 29.660034%, 23.684692%)" offset="0.328125"/><stop stop-opacity="1" stop-color="rgb(86.639404%, 29.893494%, 23.774719%)" offset="0.335938"/><stop stop-opacity="1" stop-color="rgb(86.795044%, 30.125427%, 23.86322%)" offset="0.34375"/><stop stop-opacity="1" stop-color="rgb(86.952209%, 30.358887%, 23.951721%)" offset="0.351562"/><stop stop-opacity="1" stop-color="rgb(87.107849%, 30.592346%, 24.040222%)" offset="0.359375"/><stop stop-opacity="1" stop-color="rgb(87.265015%, 30.82428%, 24.130249%)" offset="0.367188"/><stop stop-opacity="1" stop-color="rgb(87.420654%, 31.057739%, 24.21875%)" offset="0.375"/><stop stop-opacity="1" stop-color="rgb(87.576294%, 31.289673%, 24.307251%)" offset="0.382812"/><stop stop-opacity="1" stop-color="rgb(87.733459%, 31.523132%, 24.395752%)" offset="0.390625"/><stop stop-opacity="1" stop-color="rgb(87.889099%, 31.755066%, 24.484253%)" offset="0.398438"/><stop stop-opacity="1" stop-color="rgb(88.046265%, 31.988525%, 24.57428%)" offset="0.40625"/><stop stop-opacity="1" stop-color="rgb(88.201904%, 32.221985%, 24.662781%)" offset="0.414062"/><stop stop-opacity="1" stop-color="rgb(88.357544%, 32.453918%, 24.751282%)" offset="0.421875"/><stop stop-opacity="1" stop-color="rgb(88.514709%, 32.687378%, 24.839783%)" offset="0.429688"/><stop stop-opacity="1" stop-color="rgb(88.670349%, 32.919312%, 24.928284%)" offset="0.4375"/><stop stop-opacity="1" stop-color="rgb(88.827515%, 33.152771%, 25.018311%)" offset="0.445313"/><stop stop-opacity="1" stop-color="rgb(88.983154%, 33.38623%, 25.106812%)" offset="0.453125"/><stop stop-opacity="1" stop-color="rgb(89.138794%, 33.618164%, 25.195312%)" offset="0.460938"/><stop stop-opacity="1" stop-color="rgb(89.295959%, 33.851624%, 25.283813%)" offset="0.46875"/><stop stop-opacity="1" stop-color="rgb(89.451599%, 34.083557%, 25.37384%)" offset="0.476562"/><stop stop-opacity="1" stop-color="rgb(89.608765%, 34.317017%, 25.462341%)" offset="0.484375"/><stop stop-opacity="1" stop-color="rgb(89.764404%, 34.54895%, 25.550842%)" offset="0.492188"/><stop stop-opacity="1" stop-color="rgb(89.920044%, 34.78241%, 25.639343%)" offset="0.5"/><stop stop-opacity="1" stop-color="rgb(90.077209%, 35.015869%, 25.727844%)" offset="0.507813"/><stop stop-opacity="1" stop-color="rgb(90.232849%, 35.247803%, 25.817871%)" offset="0.515625"/><stop stop-opacity="1" stop-color="rgb(90.390015%, 35.481262%, 25.906372%)" offset="0.523438"/><stop stop-opacity="1" stop-color="rgb(90.545654%, 35.713196%, 25.994873%)" offset="0.53125"/><stop stop-opacity="1" stop-color="rgb(90.701294%, 35.946655%, 26.083374%)" offset="0.539062"/><stop stop-opacity="1" stop-color="rgb(90.858459%, 36.178589%, 26.171875%)" offset="0.546875"/><stop stop-opacity="1" stop-color="rgb(91.014099%, 36.412048%, 26.261902%)" offset="0.554688"/><stop stop-opacity="1" stop-color="rgb(91.171265%, 36.645508%, 26.350403%)" offset="0.5625"/><stop stop-opacity="1" stop-color="rgb(91.326904%, 36.877441%, 26.438904%)" offset="0.570312"/><stop stop-opacity="1" stop-color="rgb(91.482544%, 37.110901%, 26.527405%)" offset="0.578125"/><stop stop-opacity="1" stop-color="rgb(91.639709%, 37.342834%, 26.617432%)" offset="0.585937"/><stop stop-opacity="1" stop-color="rgb(91.795349%, 37.576294%, 26.705933%)" offset="0.59375"/><stop stop-opacity="1" stop-color="rgb(91.952515%, 37.808228%, 26.794434%)" offset="0.601562"/><stop stop-opacity="1" stop-color="rgb(92.108154%, 38.041687%, 26.882935%)" offset="0.609375"/><stop stop-opacity="1" stop-color="rgb(92.263794%, 38.275146%, 26.971436%)" offset="0.617188"/><stop stop-opacity="1" stop-color="rgb(92.420959%, 38.50708%, 27.061462%)" offset="0.625"/><stop stop-opacity="1" stop-color="rgb(92.576599%, 38.74054%, 27.149963%)" offset="0.632812"/><stop stop-opacity="1" stop-color="rgb(92.733765%, 38.972473%, 27.238464%)" offset="0.640625"/><stop stop-opacity="1" stop-color="rgb(92.889404%, 39.205933%, 27.326965%)" offset="0.648437"/><stop stop-opacity="1" stop-color="rgb(93.045044%, 39.439392%, 27.415466%)" offset="0.65625"/><stop stop-opacity="1" stop-color="rgb(93.202209%, 39.671326%, 27.505493%)" offset="0.664063"/><stop stop-opacity="1" stop-color="rgb(93.357849%, 39.904785%, 27.593994%)" offset="0.671875"/><stop stop-opacity="1" stop-color="rgb(93.515015%, 40.136719%, 27.682495%)" offset="0.679688"/><stop stop-opacity="1" stop-color="rgb(93.670654%, 40.370178%, 27.770996%)" offset="0.6875"/><stop stop-opacity="1" stop-color="rgb(93.826294%, 40.602112%, 27.861023%)" offset="0.695312"/><stop stop-opacity="1" stop-color="rgb(93.983459%, 40.835571%, 27.949524%)" offset="0.703125"/><stop stop-opacity="1" stop-color="rgb(94.139099%, 41.069031%, 28.038025%)" offset="0.710938"/><stop stop-opacity="1" stop-color="rgb(94.296265%, 41.300964%, 28.126526%)" offset="0.71875"/><stop stop-opacity="1" stop-color="rgb(94.451904%, 41.534424%, 28.215027%)" offset="0.726563"/><stop stop-opacity="1" stop-color="rgb(94.607544%, 41.766357%, 28.305054%)" offset="0.734375"/><stop stop-opacity="1" stop-color="rgb(94.764709%, 41.999817%, 28.393555%)" offset="0.742188"/><stop stop-opacity="1" stop-color="rgb(94.920349%, 42.23175%, 28.482056%)" offset="0.75"/><stop stop-opacity="1" stop-color="rgb(95.077515%, 42.46521%, 28.570557%)" offset="0.757812"/><stop stop-opacity="1" stop-color="rgb(95.233154%, 42.698669%, 28.659058%)" offset="0.765625"/><stop stop-opacity="1" stop-color="rgb(95.388794%, 42.930603%, 28.749084%)" offset="0.773438"/><stop stop-opacity="1" stop-color="rgb(95.545959%, 43.164062%, 28.837585%)" offset="0.78125"/><stop stop-opacity="1" stop-color="rgb(95.701599%, 43.395996%, 28.926086%)" offset="0.789063"/><stop stop-opacity="1" stop-color="rgb(95.858765%, 43.629456%, 29.014587%)" offset="0.796875"/><stop stop-opacity="1" stop-color="rgb(96.014404%, 43.861389%, 29.104614%)" offset="0.804688"/><stop stop-opacity="1" stop-color="rgb(96.170044%, 44.094849%, 29.193115%)" offset="0.8125"/><stop stop-opacity="1" stop-color="rgb(96.327209%, 44.328308%, 29.281616%)" offset="0.820313"/><stop stop-opacity="1" stop-color="rgb(96.482849%, 44.560242%, 29.370117%)" offset="0.828125"/><stop stop-opacity="1" stop-color="rgb(96.640015%, 44.793701%, 29.458618%)" offset="0.835938"/><stop stop-opacity="1" stop-color="rgb(96.795654%, 45.025635%, 29.548645%)" offset="0.84375"/><stop stop-opacity="1" stop-color="rgb(96.951294%, 45.259094%, 29.637146%)" offset="0.851562"/><stop stop-opacity="1" stop-color="rgb(97.108459%, 45.491028%, 29.725647%)" offset="0.859375"/><stop stop-opacity="1" stop-color="rgb(97.264099%, 45.724487%, 29.814148%)" offset="0.867187"/><stop stop-opacity="1" stop-color="rgb(97.421265%, 45.957947%, 29.902649%)" offset="0.875"/><stop stop-opacity="1" stop-color="rgb(97.576904%, 46.18988%, 29.992676%)" offset="0.882813"/><stop stop-opacity="1" stop-color="rgb(97.732544%, 46.42334%, 30.081177%)" offset="0.890625"/><stop stop-opacity="1" stop-color="rgb(97.889709%, 46.655273%, 30.169678%)" offset="0.898438"/><stop stop-opacity="1" stop-color="rgb(98.045349%, 46.888733%, 30.258179%)" offset="0.90625"/><stop stop-opacity="1" stop-color="rgb(98.202515%, 47.122192%, 30.348206%)" offset="0.914062"/><stop stop-opacity="1" stop-color="rgb(98.358154%, 47.354126%, 30.436707%)" offset="0.921875"/><stop stop-opacity="1" stop-color="rgb(98.513794%, 47.587585%, 30.525208%)" offset="0.929688"/><stop stop-opacity="1" stop-color="rgb(98.670959%, 47.819519%, 30.613708%)" offset="0.9375"/><stop stop-opacity="1" stop-color="rgb(98.826599%, 48.052979%, 30.702209%)" offset="0.945312"/><stop stop-opacity="1" stop-color="rgb(98.983765%, 48.284912%, 30.792236%)" offset="0.953125"/><stop stop-opacity="1" stop-color="rgb(99.139404%, 48.518372%, 30.880737%)" offset="0.960937"/><stop stop-opacity="1" stop-color="rgb(99.295044%, 48.751831%, 30.969238%)" offset="0.96875"/><stop stop-opacity="1" stop-color="rgb(99.452209%, 48.983765%, 31.057739%)" offset="0.976563"/><stop stop-opacity="1" stop-color="rgb(99.607849%, 49.217224%, 31.14624%)" offset="0.984375"/><stop stop-opacity="1" stop-color="rgb(99.765015%, 49.449158%, 31.236267%)" offset="0.992188"/><stop stop-opacity="1" stop-color="rgb(99.920654%, 49.682617%, 31.324768%)" offset="1"/></linearGradient><clipPath id="056591415b"><rect x="0" width="1446" y="0" height="1446"/></clipPath><clipPath id="edcfd2299d"><path d="M 717.460938 247.578125 L 1053.324219 247.578125 L 1053.324219 1322.949219 L 717.460938 1322.949219 Z M 717.460938 247.578125 " clip-rule="nonzero"/></clipPath><clipPath id="f8d2662677"><path d="M 0.460938 0.578125 L 336.324219 0.578125 L 336.324219 1075.949219 L 0.460938 1075.949219 Z M 0.460938 0.578125 " clip-rule="nonzero"/></clipPath><clipPath id="c7fb3012e8"><rect x="0" width="337" y="0" height="1076"/></clipPath><clipPath id="d280522072"><path d="M 712.28125 247 L 1320.675781 247 L 1320.675781 1322.949219 L 712.28125 1322.949219 Z M 712.28125 247 " clip-rule="nonzero"/></clipPath><clipPath id="51fcc71dd9"><path d="M 1016.480469 247.578125 L 712.28125 1322.949219 L 1320.675781 1322.949219 Z M 1016.480469 247.578125 " clip-rule="nonzero"/></clipPath><clipPath id="ed9537054f"><path d="M 0.28125 1 L 608.675781 1 L 608.675781 1075.949219 L 0.28125 1075.949219 Z M 0.28125 1 " clip-rule="nonzero"/></clipPath><clipPath id="4d5e6b5f37"><path d="M 304.480469 0.578125 L 0.28125 1075.949219 L 608.675781 1075.949219 Z M 304.480469 0.578125 " clip-rule="nonzero"/></clipPath><clipPath id="ae1636ccac"><rect x="0" width="609" y="0" height="1076"/></clipPath><clipPath id="e2138a3ef0"><path d="M 120.128906 123.152344 L 1319.964844 123.152344 L 1319.964844 1322.988281 L 120.128906 1322.988281 Z M 120.128906 123.152344 " clip-rule="nonzero"/></clipPath><clipPath id="7cbc2b4178"><path d="M 720.046875 123.152344 C 388.722656 123.152344 120.128906 391.746094 120.128906 723.070312 C 120.128906 1054.394531 388.722656 1322.988281 720.046875 1322.988281 C 1051.371094 1322.988281 1319.964844 1054.394531 1319.964844 723.070312 C 1319.964844 391.746094 1051.371094 123.152344 720.046875 123.152344 Z M 720.046875 123.152344 " clip-rule="nonzero"/></clipPath><clipPath id="a4698abc87"><path d="M 0.128906 0.152344 L 1199.964844 0.152344 L 1199.964844 1199.988281 L 0.128906 1199.988281 Z M 0.128906 0.152344 " clip-rule="nonzero"/></clipPath><clipPath id="8ecd25a12d"><path d="M 600.046875 0.152344 C 268.722656 0.152344 0.128906 268.746094 0.128906 600.070312 C 0.128906 931.394531 268.722656 1199.988281 600.046875 1199.988281 C 931.371094 1199.988281 1199.964844 931.394531 1199.964844 600.070312 C 1199.964844 268.746094 931.371094 0.152344 600.046875 0.152344 Z M 600.046875 0.152344 " clip-rule="nonzero"/></clipPath><clipPath id="413f31bc4a"><rect x="0" width="1200" y="0" height="1200"/></clipPath><clipPath id="f166670029"><path d="M 569.238281 311.199219 L 823.777344 311.199219 L 823.777344 415.457031 L 569.238281 415.457031 Z M 569.238281 311.199219 " clip-rule="nonzero"/></clipPath><clipPath id="13089d5bd2"><path d="M 621.367188 311.199219 L 771.625 311.199219 C 800.417969 311.199219 823.753906 334.535156 823.753906 363.328125 C 823.753906 392.117188 800.417969 415.457031 771.625 415.457031 L 621.367188 415.457031 C 592.578125 415.457031 569.238281 392.117188 569.238281 363.328125 C 569.238281 334.535156 592.578125 311.199219 621.367188 311.199219 Z M 621.367188 311.199219 " clip-rule="nonzero"/></clipPath><clipPath id="84047231a1"><path d="M 0.238281 0.199219 L 254.761719 0.199219 L 254.761719 104.457031 L 0.238281 104.457031 Z M 0.238281 0.199219 " clip-rule="nonzero"/></clipPath><clipPath id="48941ec7a4"><path d="M 52.367188 0.199219 L 202.625 0.199219 C 231.417969 0.199219 254.753906 23.535156 254.753906 52.328125 C 254.753906 81.117188 231.417969 104.457031 202.625 104.457031 L 52.367188 104.457031 C 23.578125 104.457031 0.238281 81.117188 0.238281 52.328125 C 0.238281 23.535156 23.578125 0.199219 52.367188 0.199219 Z M 52.367188 0.199219 " clip-rule="nonzero"/></clipPath><clipPath id="c70a2303d4"><rect x="0" width="255" y="0" height="105"/></clipPath><clipPath id="a857e54c4f"><path d="M 371 295 L 522 295 L 522 447 L 371 447 Z M 371 295 " clip-rule="nonzero"/></clipPath><clipPath id="d9a4df0242"><path d="M 357.621094 412.425781 L 488.417969 281.625 L 535.984375 329.1875 L 405.183594 459.988281 Z M 357.621094 412.425781 " clip-rule="nonzero"/></clipPath><clipPath id="fc40279897"><path d="M 381.402344 388.644531 L 464.460938 305.585938 C 470.765625 299.277344 479.320312 295.734375 488.242188 295.734375 C 497.160156 295.734375 505.714844 299.277344 512.023438 305.585938 C 518.332031 311.890625 521.875 320.445312 521.875 329.367188 C 521.875 338.285156 518.332031 346.839844 512.023438 353.148438 L 428.964844 436.207031 C 422.65625 442.515625 414.101562 446.058594 405.183594 446.058594 C 396.261719 446.058594 387.707031 442.515625 381.402344 436.207031 C 375.09375 429.898438 371.550781 421.34375 371.550781 412.425781 C 371.550781 403.503906 375.09375 394.949219 381.402344 388.644531 Z M 381.402344 388.644531 " clip-rule="nonzero"/></clipPath><clipPath id="07d4132bc3"><path d="M 0.359375 0.71875 L 151 0.71875 L 151 151.199219 L 0.359375 151.199219 Z M 0.359375 0.71875 " clip-rule="nonzero"/></clipPath><clipPath id="67425d3fc2"><path d="M -13.378906 117.425781 L 117.417969 -13.375 L 164.984375 34.1875 L 34.183594 164.988281 Z M -13.378906 117.425781 " clip-rule="nonzero"/></clipPath><clipPath id="5f14a16d00"><path d="M 10.402344 93.644531 L 93.460938 10.585938 C 99.765625 4.277344 108.320312 0.734375 117.242188 0.734375 C 126.160156 0.734375 134.714844 4.277344 141.023438 10.585938 C 147.332031 16.890625 150.875 25.445312 150.875 34.367188 C 150.875 43.285156 147.332031 51.839844 141.023438 58.148438 L 57.964844 141.207031 C 51.65625 147.515625 43.101562 151.058594 34.183594 151.058594 C 25.261719 151.058594 16.707031 147.515625 10.402344 141.207031 C 4.09375 134.898438 0.550781 126.34375 0.550781 117.425781 C 0.550781 108.503906 4.09375 99.949219 10.402344 93.644531 Z M 10.402344 93.644531 " clip-rule="nonzero"/></clipPath><clipPath id="465894f265"><rect x="0" width="151" y="0" height="152"/></clipPath><clipPath id="83050f54f8"><path d="M 331 341 L 436 341 L 436 446 L 331 446 Z M 331 341 " clip-rule="nonzero"/></clipPath><clipPath id="647d312bd6"><path d="M 365.1875 327.605469 L 449.910156 412.328125 L 402.34375 459.890625 L 317.621094 375.171875 Z M 365.1875 327.605469 " clip-rule="nonzero"/></clipPath><clipPath id="d5b3b54518"><path d="M 388.96875 351.386719 L 425.984375 388.402344 C 432.289062 394.710938 435.835938 403.265625 435.835938 412.183594 C 435.835938 421.105469 432.289062 429.660156 425.984375 435.96875 C 419.675781 442.273438 411.121094 445.816406 402.203125 445.816406 C 393.28125 445.816406 384.726562 442.273438 378.421875 435.96875 L 341.40625 398.953125 C 335.097656 392.644531 331.554688 384.089844 331.554688 375.171875 C 331.554688 366.25 335.097656 357.695312 341.40625 351.386719 C 347.710938 345.082031 356.265625 341.539062 365.1875 341.539062 C 374.105469 341.539062 382.660156 345.082031 388.96875 351.386719 Z M 388.96875 351.386719 " clip-rule="nonzero"/></clipPath><clipPath id="ad7cf91f05"><path d="M 0.519531 0.320312 L 104.921875 0.320312 L 104.921875 104.960938 L 0.519531 104.960938 Z M 0.519531 0.320312 " clip-rule="nonzero"/></clipPath><clipPath id="7459f56cf5"><path d="M 34.1875 -13.394531 L 118.910156 71.328125 L 71.34375 118.890625 L -13.378906 34.171875 Z M 34.1875 -13.394531 " clip-rule="nonzero"/></clipPath><clipPath id="bc47df4621"><path d="M 57.96875 10.386719 L 94.984375 47.402344 C 101.289062 53.710938 104.835938 62.265625 104.835938 71.183594 C 104.835938 80.105469 101.289062 88.660156 94.984375 94.96875 C 88.675781 101.273438 80.121094 104.816406 71.203125 104.816406 C 62.28125 104.816406 53.726562 101.273438 47.421875 94.96875 L 10.40625 57.953125 C 4.097656 51.644531 0.554688 43.089844 0.554688 34.171875 C 0.554688 25.25 4.097656 16.695312 10.40625 10.386719 C 16.710938 4.082031 25.265625 0.539062 34.1875 0.539062 C 43.105469 0.539062 51.660156 4.082031 57.96875 10.386719 Z M 57.96875 10.386719 " clip-rule="nonzero"/></clipPath><clipPath id="065ab11c78"><rect x="0" width="105" y="0" height="105"/></clipPath><clipPath id="81a7c0afde"><path d="M 449.765625 544.210938 L 930.332031 544.210938 L 930.332031 648.46875 L 449.765625 648.46875 Z M 449.765625 544.210938 " clip-rule="nonzero"/></clipPath><clipPath id="7f7a0c3738"><path d="M 501.894531 544.210938 L 878.117188 544.210938 C 906.90625 544.210938 930.246094 567.550781 930.246094 596.339844 C 930.246094 625.128906 906.90625 648.46875 878.117188 648.46875 L 501.894531 648.46875 C 473.105469 648.46875 449.765625 625.128906 449.765625 596.339844 C 449.765625 567.550781 473.105469 544.210938 501.894531 544.210938 Z M 501.894531 544.210938 " clip-rule="nonzero"/></clipPath><clipPath id="10ae2adf7c"><path d="M 0.765625 0.210938 L 481.320312 0.210938 L 481.320312 104.46875 L 0.765625 104.46875 Z M 0.765625 0.210938 " clip-rule="nonzero"/></clipPath><clipPath id="6d94570352"><path d="M 52.894531 0.210938 L 429.117188 0.210938 C 457.90625 0.210938 481.246094 23.550781 481.246094 52.339844 C 481.246094 81.128906 457.90625 104.46875 429.117188 104.46875 L 52.894531 104.46875 C 24.105469 104.46875 0.765625 81.128906 0.765625 52.339844 C 0.765625 23.550781 24.105469 0.210938 52.894531 0.210938 Z M 52.894531 0.210938 " clip-rule="nonzero"/></clipPath><clipPath id="189d99ba90"><rect x="0" width="482" y="0" height="105"/></clipPath><clipPath id="17bd5d2275"><path d="M 446.71875 777.222656 L 788.816406 777.222656 L 788.816406 881.480469 L 446.71875 881.480469 Z M 446.71875 777.222656 " clip-rule="nonzero"/></clipPath><clipPath id="5b1d025a94"><path d="M 498.847656 777.222656 L 736.34375 777.222656 C 765.132812 777.222656 788.472656 800.5625 788.472656 829.351562 C 788.472656 858.140625 765.132812 881.480469 736.34375 881.480469 L 498.847656 881.480469 C 470.058594 881.480469 446.71875 858.140625 446.71875 829.351562 C 446.71875 800.5625 470.058594 777.222656 498.847656 777.222656 Z M 498.847656 777.222656 " clip-rule="nonzero"/></clipPath><clipPath id="62fa29c78c"><path d="M 0.71875 0.222656 L 342.480469 0.222656 L 342.480469 104.480469 L 0.71875 104.480469 Z M 0.71875 0.222656 " clip-rule="nonzero"/></clipPath><clipPath id="dfbb88b63b"><path d="M 52.847656 0.222656 L 290.34375 0.222656 C 319.132812 0.222656 342.472656 23.5625 342.472656 52.351562 C 342.472656 81.140625 319.132812 104.480469 290.34375 104.480469 L 52.847656 104.480469 C 24.058594 104.480469 0.71875 81.140625 0.71875 52.351562 C 0.71875 23.5625 24.058594 0.222656 52.847656 0.222656 Z M 52.847656 0.222656 " clip-rule="nonzero"/></clipPath><clipPath id="33b4f341cc"><rect x="0" width="343" y="0" height="105"/></clipPath><clipPath id="aefebfc974"><path d="M 569.238281 1007.730469 L 823.777344 1007.730469 L 823.777344 1111.988281 L 569.238281 1111.988281 Z M 569.238281 1007.730469 " clip-rule="nonzero"/></clipPath><clipPath id="d2640b82c4"><path d="M 621.367188 1007.730469 L 771.625 1007.730469 C 800.417969 1007.730469 823.753906 1031.070312 823.753906 1059.859375 C 823.753906 1088.648438 800.417969 1111.988281 771.625 1111.988281 L 621.367188 1111.988281 C 592.578125 1111.988281 569.238281 1088.648438 569.238281 1059.859375 C 569.238281 1031.070312 592.578125 1007.730469 621.367188 1007.730469 Z M 621.367188 1007.730469 " clip-rule="nonzero"/></clipPath><clipPath id="2a82d7ce53"><path d="M 0.238281 0.730469 L 254.761719 0.730469 L 254.761719 104.988281 L 0.238281 104.988281 Z M 0.238281 0.730469 " clip-rule="nonzero"/></clipPath><clipPath id="4e7fc957b1"><path d="M 52.367188 0.730469 L 202.625 0.730469 C 231.417969 0.730469 254.753906 24.070312 254.753906 52.859375 C 254.753906 81.648438 231.417969 104.988281 202.625 104.988281 L 52.367188 104.988281 C 23.578125 104.988281 0.238281 81.648438 0.238281 52.859375 C 0.238281 24.070312 23.578125 0.730469 52.367188 0.730469 Z M 52.367188 0.730469 " clip-rule="nonzero"/></clipPath><clipPath id="aa90114220"><rect x="0" width="255" y="0" height="105"/></clipPath><clipPath id="70dccb3011"><path d="M 246 523 L 397 523 L 397 674 L 246 674 Z M 246 523 " clip-rule="nonzero"/></clipPath><clipPath id="b766e2efcc"><path d="M 232.367188 640.355469 L 363.167969 509.558594 L 410.730469 557.121094 L 279.929688 687.921875 Z M 232.367188 640.355469 " clip-rule="nonzero"/></clipPath><clipPath id="957299ad04"><path d="M 256.148438 616.574219 L 339.207031 533.515625 C 345.515625 527.210938 354.070312 523.667969 362.988281 523.667969 C 371.910156 523.667969 380.464844 527.210938 386.769531 533.515625 C 393.078125 539.824219 396.621094 548.378906 396.621094 557.300781 C 396.621094 566.21875 393.078125 574.773438 386.769531 581.082031 L 303.710938 664.140625 C 297.40625 670.445312 288.851562 673.988281 279.929688 673.988281 C 271.011719 673.988281 262.457031 670.445312 256.148438 664.140625 C 249.84375 657.832031 246.296875 649.277344 246.296875 640.355469 C 246.296875 631.4375 249.84375 622.882812 256.148438 616.574219 Z M 256.148438 616.574219 " clip-rule="nonzero"/></clipPath><clipPath id="02f3078957"><path d="M 0.078125 0.480469 L 150.800781 0.480469 L 150.800781 151 L 0.078125 151 Z M 0.078125 0.480469 " clip-rule="nonzero"/></clipPath><clipPath id="22d8d449c1"><path d="M -13.632812 117.355469 L 117.167969 -13.441406 L 164.730469 34.121094 L 33.929688 164.921875 Z M -13.632812 117.355469 " clip-rule="nonzero"/></clipPath><clipPath id="5e0a86eef6"><path d="M 10.148438 93.574219 L 93.207031 10.515625 C 99.515625 4.210938 108.070312 0.667969 116.988281 0.667969 C 125.910156 0.667969 134.464844 4.210938 140.769531 10.515625 C 147.078125 16.824219 150.621094 25.378906 150.621094 34.300781 C 150.621094 43.21875 147.078125 51.773438 140.769531 58.082031 L 57.710938 141.140625 C 51.40625 147.445312 42.851562 150.988281 33.929688 150.988281 C 25.011719 150.988281 16.457031 147.445312 10.148438 141.140625 C 3.84375 134.832031 0.296875 126.277344 0.296875 117.355469 C 0.296875 108.4375 3.84375 99.882812 10.148438 93.574219 Z M 10.148438 93.574219 " clip-rule="nonzero"/></clipPath><clipPath id="396e1dd506"><rect x="0" width="151" y="0" height="151"/></clipPath><clipPath id="2ddfc29d12"><path d="M 206 569 L 311 569 L 311 674 L 206 674 Z M 206 569 " clip-rule="nonzero"/></clipPath><clipPath id="a8b2018351"><path d="M 239.933594 555.539062 L 324.65625 640.261719 L 277.09375 687.824219 L 192.371094 603.101562 Z M 239.933594 555.539062 " clip-rule="nonzero"/></clipPath><clipPath id="ee246273dd"><path d="M 263.714844 579.320312 L 300.730469 616.335938 C 307.039062 622.644531 310.582031 631.199219 310.582031 640.117188 C 310.582031 649.039062 307.039062 657.59375 300.730469 663.898438 C 294.425781 670.207031 285.871094 673.75 276.949219 673.75 C 268.03125 673.75 259.476562 670.207031 253.167969 663.898438 L 216.152344 626.882812 C 209.84375 620.578125 206.300781 612.023438 206.300781 603.101562 C 206.300781 594.183594 209.84375 585.628906 216.152344 579.320312 C 222.460938 573.011719 231.015625 569.46875 239.933594 569.46875 C 248.855469 569.46875 257.410156 573.011719 263.714844 579.320312 Z M 263.714844 579.320312 " clip-rule="nonzero"/></clipPath><clipPath id="6fcbb3d6aa"><path d="M 0.238281 0.320312 L 104.640625 0.320312 L 104.640625 104.960938 L 0.238281 104.960938 Z M 0.238281 0.320312 " clip-rule="nonzero"/></clipPath><clipPath id="63fae600bc"><path d="M 33.933594 -13.460938 L 118.65625 71.261719 L 71.09375 118.824219 L -13.628906 34.101562 Z M 33.933594 -13.460938 " clip-rule="nonzero"/></clipPath><clipPath id="7b55adb618"><path d="M 57.714844 10.320312 L 94.730469 47.335938 C 101.039062 53.644531 104.582031 62.199219 104.582031 71.117188 C 104.582031 80.039062 101.039062 88.59375 94.730469 94.898438 C 88.425781 101.207031 79.871094 104.75 70.949219 104.75 C 62.03125 104.75 53.476562 101.207031 47.167969 94.898438 L 10.152344 57.882812 C 3.84375 51.578125 0.300781 43.023438 0.300781 34.101562 C 0.300781 25.183594 3.84375 16.628906 10.152344 10.320312 C 16.460938 4.011719 25.015625 0.46875 33.933594 0.46875 C 42.855469 0.46875 51.410156 4.011719 57.714844 10.320312 Z M 57.714844 10.320312 " clip-rule="nonzero"/></clipPath><clipPath id="21425fd34a"><rect x="0" width="105" y="0" height="105"/></clipPath><clipPath id="92f172a2c7"><path d="M 246 754 L 397 754 L 397 905 L 246 905 Z M 246 754 " clip-rule="nonzero"/></clipPath><clipPath id="4f88a77d7c"><path d="M 232.367188 870.867188 L 363.167969 740.066406 L 410.730469 787.628906 L 279.929688 918.429688 Z M 232.367188 870.867188 " clip-rule="nonzero"/></clipPath><clipPath id="2d5da1a344"><path d="M 256.148438 847.082031 L 339.207031 764.027344 C 345.515625 757.71875 354.070312 754.175781 362.988281 754.175781 C 371.910156 754.175781 380.464844 757.71875 386.769531 764.027344 C 393.078125 770.332031 396.621094 778.886719 396.621094 787.808594 C 396.621094 796.726562 393.078125 805.28125 386.769531 811.589844 L 303.710938 894.648438 C 297.40625 900.953125 288.851562 904.496094 279.929688 904.496094 C 271.011719 904.496094 262.457031 900.953125 256.148438 894.648438 C 249.84375 888.339844 246.296875 879.785156 246.296875 870.867188 C 246.296875 861.945312 249.84375 853.390625 256.148438 847.082031 Z M 256.148438 847.082031 " clip-rule="nonzero"/></clipPath><clipPath id="54b2a415c4"><path d="M 0.078125 0.121094 L 150.800781 0.121094 L 150.800781 150.601562 L 0.078125 150.601562 Z M 0.078125 0.121094 " clip-rule="nonzero"/></clipPath><clipPath id="f13d9252b0"><path d="M -13.632812 116.867188 L 117.167969 -13.933594 L 164.730469 33.628906 L 33.929688 164.429688 Z M -13.632812 116.867188 " clip-rule="nonzero"/></clipPath><clipPath id="68f654e5a7"><path d="M 10.148438 93.082031 L 93.207031 10.027344 C 99.515625 3.71875 108.070312 0.175781 116.988281 0.175781 C 125.910156 0.175781 134.464844 3.71875 140.769531 10.027344 C 147.078125 16.332031 150.621094 24.886719 150.621094 33.808594 C 150.621094 42.726562 147.078125 51.28125 140.769531 57.589844 L 57.710938 140.648438 C 51.40625 146.953125 42.851562 150.496094 33.929688 150.496094 C 25.011719 150.496094 16.457031 146.953125 10.148438 140.648438 C 3.84375 134.339844 0.296875 125.785156 0.296875 116.867188 C 0.296875 107.945312 3.84375 99.390625 10.148438 93.082031 Z M 10.148438 93.082031 " clip-rule="nonzero"/></clipPath><clipPath id="f09a0e6599"><rect x="0" width="151" y="0" height="151"/></clipPath><clipPath id="e84e3a9d8f"><path d="M 206 799 L 311 799 L 311 905 L 206 905 Z M 206 799 " clip-rule="nonzero"/></clipPath><clipPath id="5729d6126e"><path d="M 239.933594 786.046875 L 324.65625 870.769531 L 277.09375 918.332031 L 192.371094 833.609375 Z M 239.933594 786.046875 " clip-rule="nonzero"/></clipPath><clipPath id="aab2427d84"><path d="M 263.714844 809.828125 L 300.730469 846.84375 C 307.039062 853.152344 310.582031 861.707031 310.582031 870.625 C 310.582031 879.546875 307.039062 888.101562 300.730469 894.40625 C 294.425781 900.714844 285.871094 904.257812 276.949219 904.257812 C 268.03125 904.257812 259.476562 900.714844 253.167969 894.40625 L 216.152344 857.390625 C 209.84375 851.085938 206.300781 842.53125 206.300781 833.609375 C 206.300781 824.691406 209.84375 816.136719 216.152344 809.828125 C 222.460938 803.523438 231.015625 799.976562 239.933594 799.976562 C 248.855469 799.976562 257.410156 803.523438 263.714844 809.828125 Z M 263.714844 809.828125 " clip-rule="nonzero"/></clipPath><clipPath id="d124bdf762"><path d="M 0.238281 0.960938 L 104.640625 0.960938 L 104.640625 105.359375 L 0.238281 105.359375 Z M 0.238281 0.960938 " clip-rule="nonzero"/></clipPath><clipPath id="e60e83e0ad"><path d="M 33.933594 -12.953125 L 118.65625 71.769531 L 71.09375 119.332031 L -13.628906 34.609375 Z M 33.933594 -12.953125 " clip-rule="nonzero"/></clipPath><clipPath id="31f23832ae"><path d="M 57.714844 10.828125 L 94.730469 47.84375 C 101.039062 54.152344 104.582031 62.707031 104.582031 71.625 C 104.582031 80.546875 101.039062 89.101562 94.730469 95.40625 C 88.425781 101.714844 79.871094 105.257812 70.949219 105.257812 C 62.03125 105.257812 53.476562 101.714844 47.167969 95.40625 L 10.152344 58.390625 C 3.84375 52.085938 0.300781 43.53125 0.300781 34.609375 C 0.300781 25.691406 3.84375 17.136719 10.152344 10.828125 C 16.460938 4.523438 25.015625 0.976562 33.933594 0.976562 C 42.855469 0.976562 51.410156 4.523438 57.714844 10.828125 Z M 57.714844 10.828125 " clip-rule="nonzero"/></clipPath><clipPath id="929b22fbc9"><rect x="0" width="105" y="0" height="106"/></clipPath><clipPath id="cbdb69bb2d"><path d="M 378 984 L 529 984 L 529 1136 L 378 1136 Z M 378 984 " clip-rule="nonzero"/></clipPath><clipPath id="1a4d8b0037"><path d="M 364.511719 1101.375 L 495.308594 970.574219 L 542.871094 1018.136719 L 412.074219 1148.9375 Z M 364.511719 1101.375 " clip-rule="nonzero"/></clipPath><clipPath id="6c3c865d0b"><path d="M 388.292969 1077.59375 L 471.351562 994.535156 C 477.65625 988.226562 486.210938 984.683594 495.132812 984.683594 C 504.050781 984.683594 512.605469 988.226562 518.914062 994.535156 C 525.21875 1000.839844 528.765625 1009.394531 528.765625 1018.316406 C 528.765625 1027.234375 525.21875 1035.789062 518.914062 1042.097656 L 435.855469 1125.15625 C 429.546875 1131.460938 420.992188 1135.007812 412.074219 1135.007812 C 403.152344 1135.007812 394.597656 1131.460938 388.292969 1125.15625 C 381.984375 1118.847656 378.441406 1110.292969 378.441406 1101.375 C 378.441406 1092.453125 381.984375 1083.898438 388.292969 1077.59375 Z M 388.292969 1077.59375 " clip-rule="nonzero"/></clipPath><clipPath id="9f512f51cb"><path d="M 0.320312 0.519531 L 150.800781 0.519531 L 150.800781 151.238281 L 0.320312 151.238281 Z M 0.320312 0.519531 " clip-rule="nonzero"/></clipPath><clipPath id="3e72f9e201"><path d="M -13.488281 117.375 L 117.308594 -13.425781 L 164.871094 34.136719 L 34.074219 164.9375 Z M -13.488281 117.375 " clip-rule="nonzero"/></clipPath><clipPath id="3976cee049"><path d="M 10.292969 93.59375 L 93.351562 10.535156 C 99.65625 4.226562 108.210938 0.683594 117.132812 0.683594 C 126.050781 0.683594 134.605469 4.226562 140.914062 10.535156 C 147.21875 16.839844 150.765625 25.394531 150.765625 34.316406 C 150.765625 43.234375 147.21875 51.789062 140.914062 58.097656 L 57.855469 141.15625 C 51.546875 147.460938 42.992188 151.007812 34.074219 151.007812 C 25.152344 151.007812 16.597656 147.460938 10.292969 141.15625 C 3.984375 134.847656 0.441406 126.292969 0.441406 117.375 C 0.441406 108.453125 3.984375 99.898438 10.292969 93.59375 Z M 10.292969 93.59375 " clip-rule="nonzero"/></clipPath><clipPath id="78e5122a86"><rect x="0" width="151" y="0" height="152"/></clipPath><clipPath id="82cdc203c7"><path d="M 338 1030 L 443 1030 L 443 1135 L 338 1135 Z M 338 1030 " clip-rule="nonzero"/></clipPath><clipPath id="edae5e4549"><path d="M 372.078125 1016.554688 L 456.796875 1101.277344 L 409.234375 1148.839844 L 324.511719 1064.117188 Z M 372.078125 1016.554688 " clip-rule="nonzero"/></clipPath><clipPath id="ae84cc93fc"><path d="M 395.859375 1040.335938 L 432.875 1077.351562 C 439.179688 1083.660156 442.722656 1092.214844 442.722656 1101.132812 C 442.722656 1110.054688 439.179688 1118.609375 432.875 1124.917969 C 426.566406 1131.222656 418.011719 1134.765625 409.09375 1134.765625 C 400.171875 1134.765625 391.617188 1131.222656 385.308594 1124.917969 L 348.292969 1087.902344 C 341.988281 1081.59375 338.445312 1073.039062 338.445312 1064.117188 C 338.445312 1055.199219 341.988281 1046.644531 348.292969 1040.335938 C 354.601562 1034.03125 363.15625 1030.488281 372.078125 1030.488281 C 380.996094 1030.488281 389.550781 1034.03125 395.859375 1040.335938 Z M 395.859375 1040.335938 " clip-rule="nonzero"/></clipPath><clipPath id="1ba464c173"><path d="M 0.238281 0.359375 L 104.878906 0.359375 L 104.878906 105 L 0.238281 105 Z M 0.238281 0.359375 " clip-rule="nonzero"/></clipPath><clipPath id="701c0f2a4d"><path d="M 34.078125 -13.445312 L 118.796875 71.277344 L 71.234375 118.839844 L -13.488281 34.117188 Z M 34.078125 -13.445312 " clip-rule="nonzero"/></clipPath><clipPath id="cf6f0c9e20"><path d="M 57.859375 10.335938 L 94.875 47.351562 C 101.179688 53.660156 104.722656 62.214844 104.722656 71.132812 C 104.722656 80.054688 101.179688 88.609375 94.875 94.917969 C 88.566406 101.222656 80.011719 104.765625 71.09375 104.765625 C 62.171875 104.765625 53.617188 101.222656 47.308594 94.917969 L 10.292969 57.902344 C 3.988281 51.59375 0.445312 43.039062 0.445312 34.117188 C 0.445312 25.199219 3.988281 16.644531 10.292969 10.335938 C 16.601562 4.03125 25.15625 0.488281 34.078125 0.488281 C 42.996094 0.488281 51.550781 4.03125 57.859375 10.335938 Z M 57.859375 10.335938 " clip-rule="nonzero"/></clipPath><clipPath id="69e3145488"><rect x="0" width="105" y="0" height="105"/></clipPath><clipPath id="dcae143480"><path d="M 853.226562 311.199219 L 1137.496094 311.199219 L 1137.496094 415.457031 L 853.226562 415.457031 Z M 853.226562 311.199219 " clip-rule="nonzero"/></clipPath><clipPath id="a388694efd"><path d="M 905.359375 311.199219 L 1084.972656 311.199219 C 1113.761719 311.199219 1137.101562 334.535156 1137.101562 363.328125 C 1137.101562 392.117188 1113.761719 415.457031 1084.972656 415.457031 L 905.359375 415.457031 C 876.566406 415.457031 853.226562 392.117188 853.226562 363.328125 C 853.226562 334.535156 876.566406 311.199219 905.359375 311.199219 Z M 905.359375 311.199219 " clip-rule="nonzero"/></clipPath><clipPath id="0d5918f110"><path d="M 0.226562 0.199219 L 284.199219 0.199219 L 284.199219 104.457031 L 0.226562 104.457031 Z M 0.226562 0.199219 " clip-rule="nonzero"/></clipPath><clipPath id="1027ce2259"><path d="M 52.359375 0.199219 L 231.972656 0.199219 C 260.761719 0.199219 284.101562 23.535156 284.101562 52.328125 C 284.101562 81.117188 260.761719 104.457031 231.972656 104.457031 L 52.359375 104.457031 C 23.566406 104.457031 0.226562 81.117188 0.226562 52.328125 C 0.226562 23.535156 23.566406 0.199219 52.359375 0.199219 Z M 52.359375 0.199219 " clip-rule="nonzero"/></clipPath><clipPath id="b98da0e6a2"><rect x="0" width="285" y="0" height="105"/></clipPath><clipPath id="282fc79311"><path d="M 964.414062 546.714844 L 1231.578125 546.714844 L 1231.578125 650.972656 L 964.414062 650.972656 Z M 964.414062 546.714844 " clip-rule="nonzero"/></clipPath><clipPath id="494e9708ad"><path d="M 1016.542969 546.714844 L 1179.335938 546.714844 C 1208.125 546.714844 1231.464844 570.054688 1231.464844 598.84375 C 1231.464844 627.632812 1208.125 650.972656 1179.335938 650.972656 L 1016.542969 650.972656 C 987.753906 650.972656 964.414062 627.632812 964.414062 598.84375 C 964.414062 570.054688 987.753906 546.714844 1016.542969 546.714844 Z M 1016.542969 546.714844 " clip-rule="nonzero"/></clipPath><clipPath id="5e93f4e70c"><path d="M 0.414062 0.714844 L 267.519531 0.714844 L 267.519531 104.972656 L 0.414062 104.972656 Z M 0.414062 0.714844 " clip-rule="nonzero"/></clipPath><clipPath id="34cec7c065"><path d="M 52.542969 0.714844 L 215.335938 0.714844 C 244.125 0.714844 267.464844 24.054688 267.464844 52.84375 C 267.464844 81.632812 244.125 104.972656 215.335938 104.972656 L 52.542969 104.972656 C 23.753906 104.972656 0.414062 81.632812 0.414062 52.84375 C 0.414062 24.054688 23.753906 0.714844 52.542969 0.714844 Z M 52.542969 0.714844 " clip-rule="nonzero"/></clipPath><clipPath id="2ea7e0c191"><rect x="0" width="268" y="0" height="105"/></clipPath><clipPath id="719ab02333"><path d="M 834.382812 776.78125 L 1231.867188 776.78125 L 1231.867188 881.039062 L 834.382812 881.039062 Z M 834.382812 776.78125 " clip-rule="nonzero"/></clipPath><clipPath id="40e2fc2d42"><path d="M 886.511719 776.78125 L 1179.335938 776.78125 C 1208.125 776.78125 1231.464844 800.121094 1231.464844 828.910156 C 1231.464844 857.703125 1208.125 881.039062 1179.335938 881.039062 L 886.511719 881.039062 C 857.722656 881.039062 834.382812 857.703125 834.382812 828.910156 C 834.382812 800.121094 857.722656 776.78125 886.511719 776.78125 Z M 886.511719 776.78125 " clip-rule="nonzero"/></clipPath><clipPath id="ac149ab047"><path d="M 0.382812 0.78125 L 397.519531 0.78125 L 397.519531 105.039062 L 0.382812 105.039062 Z M 0.382812 0.78125 " clip-rule="nonzero"/></clipPath><clipPath id="c9c30f0e90"><path d="M 52.511719 0.78125 L 345.335938 0.78125 C 374.125 0.78125 397.464844 24.121094 397.464844 52.910156 C 397.464844 81.703125 374.125 105.039062 345.335938 105.039062 L 52.511719 105.039062 C 23.722656 105.039062 0.382812 81.703125 0.382812 52.910156 C 0.382812 24.121094 23.722656 0.78125 52.511719 0.78125 Z M 52.511719 0.78125 " clip-rule="nonzero"/></clipPath><clipPath id="ad9491b93d"><rect x="0" width="398" y="0" height="106"/></clipPath><clipPath id="c8987c1a58"><path d="M 885.414062 1007.289062 L 1161 1007.289062 L 1161 1111.550781 L 885.414062 1111.550781 Z M 885.414062 1007.289062 " clip-rule="nonzero"/></clipPath><clipPath id="bdebcc0e8d"><path d="M 937.542969 1007.289062 L 1108.609375 1007.289062 C 1137.398438 1007.289062 1160.738281 1030.628906 1160.738281 1059.421875 C 1160.738281 1088.210938 1137.398438 1111.550781 1108.609375 1111.550781 L 937.542969 1111.550781 C 908.753906 1111.550781 885.414062 1088.210938 885.414062 1059.421875 C 885.414062 1030.628906 908.753906 1007.289062 937.542969 1007.289062 Z M 937.542969 1007.289062 " clip-rule="nonzero"/></clipPath><clipPath id="ece7f2a259"><path d="M 0.414062 0.289062 L 275.960938 0.289062 L 275.960938 104.550781 L 0.414062 104.550781 Z M 0.414062 0.289062 " clip-rule="nonzero"/></clipPath><clipPath id="d5109f3f10"><path d="M 52.542969 0.289062 L 223.609375 0.289062 C 252.398438 0.289062 275.738281 23.628906 275.738281 52.421875 C 275.738281 81.210938 252.398438 104.550781 223.609375 104.550781 L 52.542969 104.550781 C 23.753906 104.550781 0.414062 81.210938 0.414062 52.421875 C 0.414062 23.628906 23.753906 0.289062 52.542969 0.289062 Z M 52.542969 0.289062 " clip-rule="nonzero"/></clipPath><clipPath id="e437d30cc0"><rect x="0" width="276" y="0" height="105"/></clipPath><clipPath id="2507bdc40a"><rect x="0" width="1482" y="0" height="1446"/></clipPath></defs><g transform="matrix(1, 0, 0, 1, 10, 11)"><g clip-path="url(#2507bdc40a)"><g clip-path="url(#90779ec9d6)"><g transform="matrix(1, 0, 0, 1, 710, 150)"><g clip-path="url(#f13eb6af0a)"><g clip-path="url(#7db2702816)"><path fill="#cc3333" d="M 404.632812 1295.574219 L 0.136719 1295.574219 L 0.136719 -0.0742188 L 404.632812 -0.0742188 Z M 404.632812 1295.574219 " fill-opacity="1" fill-rule="nonzero"/></g></g></g></g><g clip-path="url(#134e84d049)"><g clip-path="url(#73af2e25b2)"><g transform="matrix(1, 0, 0, 1, 748, 150)"><g clip-path="url(#b9f441bdb7)"><g clip-path="url(#59a8f4450b)"><g clip-path="url(#d3c12eff85)"><path fill="#ff7f50" d="M 733.011719 1295.574219 L 0.289062 1295.574219 L 0.289062 1.859375 L 733.011719 1.859375 Z M 733.011719 1295.574219 " fill-opacity="1" fill-rule="nonzero"/></g></g></g></g></g></g><g clip-path="url(#cbdb459a34)"><g clip-path="url(#71cc72d9f7)"><g transform="matrix(1, 0, 0, 1, 0, -0.00000000000011191)"><g clip-path="url(#056591415b)"><g clip-path="url(#5704005637)"><g clip-path="url(#d6f5618c89)"><path fill="url(#6ba98690cb)" d="M 0.480469 0.558594 L 0.480469 1445.582031 L 1445.507812 1445.582031 L 1445.507812 0.558594 Z M 0.480469 0.558594 " fill-rule="nonzero"/></g></g></g></g></g></g><g clip-path="url(#edcfd2299d)"><g transform="matrix(1, 0, 0, 1, 717, 247)"><g clip-path="url(#c7fb3012e8)"><g clip-path="url(#f8d2662677)"><path fill="#ffffff" d="M 336.324219 1075.949219 L 0.460938 1075.949219 L 0.460938 0.140625 L 336.324219 0.140625 Z M 336.324219 1075.949219 " fill-opacity="1" fill-rule="nonzero"/></g></g></g></g><g clip-path="url(#d280522072)"><g clip-path="url(#51fcc71dd9)"><g transform="matrix(1, 0, 0, 1, 712, 247)"><g clip-path="url(#ae1636ccac)"><g clip-path="url(#ed9537054f)"><g clip-path="url(#4d5e6b5f37)"><path fill="#ffffff" d="M 608.675781 1075.949219 L 0.28125 1075.949219 L 0.28125 1.75 L 608.675781 1.75 Z M 608.675781 1075.949219 " fill-opacity="1" fill-rule="nonzero"/></g></g></g></g></g></g><g clip-path="url(#e2138a3ef0)"><g clip-path="url(#7cbc2b4178)"><g transform="matrix(1, 0, 0, 1, 120, 123)"><g clip-path="url(#413f31bc4a)"><g clip-path="url(#a4698abc87)"><g clip-path="url(#8ecd25a12d)"><path fill="#ffffff" d="M 0.128906 0.152344 L 1199.964844 0.152344 L 1199.964844 1199.988281 L 0.128906 1199.988281 Z M 0.128906 0.152344 " fill-opacity="1" fill-rule="nonzero"/></g></g></g></g></g></g><g clip-path="url(#f166670029)"><g clip-path="url(#13089d5bd2)"><g transform="matrix(1, 0, 0, 1, 569, 311)"><g clip-path="url(#c70a2303d4)"><g clip-path="url(#84047231a1)"><g clip-path="url(#48941ec7a4)"><path fill="#ff914d" d="M 0.238281 0.199219 L 254.777344 0.199219 L 254.777344 104.457031 L 0.238281 104.457031 Z M 0.238281 0.199219 " fill-opacity="1" fill-rule="nonzero"/></g></g></g></g></g></g><g clip-path="url(#a857e54c4f)"><g clip-path="url(#d9a4df0242)"><g clip-path="url(#fc40279897)"><g transform="matrix(1, 0, 0, 1, 371, 295)"><g clip-path="url(#465894f265)"><g clip-path="url(#07d4132bc3)"><g clip-path="url(#67425d3fc2)"><g clip-path="url(#5f14a16d00)"><path fill="#cc3333" d="M -13.378906 117.425781 L 117.234375 -13.1875 L 164.796875 34.375 L 34.183594 164.988281 Z M -13.378906 117.425781 " fill-opacity="1" fill-rule="nonzero"/></g></g></g></g></g></g></g></g><g clip-path="url(#83050f54f8)"><g clip-path="url(#647d312bd6)"><g clip-path="url(#d5b3b54518)"><g transform="matrix(1, 0, 0, 1, 331, 341)"><g clip-path="url(#065ab11c78)"><g clip-path="url(#ad7cf91f05)"><g clip-path="url(#7459f56cf5)"><g clip-path="url(#bc47df4621)"><path fill="#cc3333" d="M 34.1875 -13.394531 L 118.722656 71.144531 L 71.160156 118.707031 L -13.378906 34.171875 Z M 34.1875 -13.394531 " fill-opacity="1" fill-rule="nonzero"/></g></g></g></g></g></g></g></g><g clip-path="url(#81a7c0afde)"><g clip-path="url(#7f7a0c3738)"><g transform="matrix(1, 0, 0, 1, 449, 544)"><g clip-path="url(#189d99ba90)"><g clip-path="url(#10ae2adf7c)"><g clip-path="url(#6d94570352)"><path fill="#ffde59" d="M 0.765625 0.210938 L 481.332031 0.210938 L 481.332031 104.46875 L 0.765625 104.46875 Z M 0.765625 0.210938 " fill-opacity="1" fill-rule="nonzero"/></g></g></g></g></g></g><g clip-path="url(#17bd5d2275)"><g clip-path="url(#5b1d025a94)"><g transform="matrix(1, 0, 0, 1, 446, 777)"><g clip-path="url(#33b4f341cc)"><g clip-path="url(#62fa29c78c)"><g clip-path="url(#dfbb88b63b)"><path fill="#ff914d" d="M 0.71875 0.222656 L 342.410156 0.222656 L 342.410156 104.480469 L 0.71875 104.480469 Z M 0.71875 0.222656 " fill-opacity="1" fill-rule="nonzero"/></g></g></g></g></g></g><g clip-path="url(#aefebfc974)"><g clip-path="url(#d2640b82c4)"><g transform="matrix(1, 0, 0, 1, 569, 1007)"><g clip-path="url(#aa90114220)"><g clip-path="url(#2a82d7ce53)"><g clip-path="url(#4e7fc957b1)"><path fill="#ffde59" d="M 0.238281 0.730469 L 254.777344 0.730469 L 254.777344 104.988281 L 0.238281 104.988281 Z M 0.238281 0.730469 " fill-opacity="1" fill-rule="nonzero"/></g></g></g></g></g></g><g clip-path="url(#70dccb3011)"><g clip-path="url(#b766e2efcc)"><g clip-path="url(#957299ad04)"><g transform="matrix(1, 0, 0, 1, 246, 523)"><g clip-path="url(#396e1dd506)"><g clip-path="url(#02f3078957)"><g clip-path="url(#22d8d449c1)"><g clip-path="url(#5e0a86eef6)"><path fill="#ff7b7b" d="M -13.632812 117.355469 L 116.980469 -13.257812 L 164.542969 34.308594 L 33.929688 164.921875 Z M -13.632812 117.355469 " fill-opacity="1" fill-rule="nonzero"/></g></g></g></g></g></g></g></g><g clip-path="url(#2ddfc29d12)"><g clip-path="url(#a8b2018351)"><g clip-path="url(#ee246273dd)"><g transform="matrix(1, 0, 0, 1, 206, 569)"><g clip-path="url(#21425fd34a)"><g clip-path="url(#6fcbb3d6aa)"><g clip-path="url(#63fae600bc)"><g clip-path="url(#7b55adb618)"><path fill="#ff7b7b" d="M 33.933594 -13.460938 L 118.472656 71.074219 L 70.90625 118.640625 L -13.628906 34.101562 Z M 33.933594 -13.460938 " fill-opacity="1" fill-rule="nonzero"/></g></g></g></g></g></g></g></g><g clip-path="url(#92f172a2c7)"><g clip-path="url(#4f88a77d7c)"><g clip-path="url(#2d5da1a344)"><g transform="matrix(1, 0, 0, 1, 246, 754)"><g clip-path="url(#f09a0e6599)"><g clip-path="url(#54b2a415c4)"><g clip-path="url(#f13d9252b0)"><g clip-path="url(#68f654e5a7)"><path fill="#cc3333" d="M -13.632812 116.867188 L 116.980469 -13.746094 L 164.542969 33.816406 L 33.929688 164.429688 Z M -13.632812 116.867188 " fill-opacity="1" fill-rule="nonzero"/></g></g></g></g></g></g></g></g><g clip-path="url(#e84e3a9d8f)"><g clip-path="url(#5729d6126e)"><g clip-path="url(#aab2427d84)"><g transform="matrix(1, 0, 0, 1, 206, 799)"><g clip-path="url(#929b22fbc9)"><g clip-path="url(#d124bdf762)"><g clip-path="url(#e60e83e0ad)"><g clip-path="url(#31f23832ae)"><path fill="#cc3333" d="M 33.933594 -12.953125 L 118.472656 71.582031 L 70.90625 119.148438 L -13.628906 34.609375 Z M 33.933594 -12.953125 " fill-opacity="1" fill-rule="nonzero"/></g></g></g></g></g></g></g></g><g clip-path="url(#cbdb69bb2d)"><g clip-path="url(#1a4d8b0037)"><g clip-path="url(#6c3c865d0b)"><g transform="matrix(1, 0, 0, 1, 378, 984)"><g clip-path="url(#78e5122a86)"><g clip-path="url(#9f512f51cb)"><g clip-path="url(#3e72f9e201)"><g clip-path="url(#3976cee049)"><path fill="#ff7b7b" d="M -13.488281 117.375 L 117.125 -13.238281 L 164.6875 34.324219 L 34.074219 164.9375 Z M -13.488281 117.375 " fill-opacity="1" fill-rule="nonzero"/></g></g></g></g></g></g></g></g><g clip-path="url(#82cdc203c7)"><g clip-path="url(#edae5e4549)"><g clip-path="url(#ae84cc93fc)"><g transform="matrix(1, 0, 0, 1, 338, 1030)"><g clip-path="url(#69e3145488)"><g clip-path="url(#1ba464c173)"><g clip-path="url(#701c0f2a4d)"><g clip-path="url(#cf6f0c9e20)"><path fill="#ff7b7b" d="M 34.078125 -13.445312 L 118.613281 71.09375 L 71.050781 118.65625 L -13.488281 34.117188 Z M 34.078125 -13.445312 " fill-opacity="1" fill-rule="nonzero"/></g></g></g></g></g></g></g></g><g clip-path="url(#dcae143480)"><g clip-path="url(#a388694efd)"><g transform="matrix(1, 0, 0, 1, 853, 311)"><g clip-path="url(#b98da0e6a2)"><g clip-path="url(#0d5918f110)"><g clip-path="url(#1027ce2259)"><path fill="#ffde59" d="M 0.226562 0.199219 L 284.089844 0.199219 L 284.089844 104.457031 L 0.226562 104.457031 Z M 0.226562 0.199219 " fill-opacity="1" fill-rule="nonzero"/></g></g></g></g></g></g><g clip-path="url(#282fc79311)"><g clip-path="url(#494e9708ad)"><g transform="matrix(1, 0, 0, 1, 964, 546)"><g clip-path="url(#2ea7e0c191)"><g clip-path="url(#5e93f4e70c)"><g clip-path="url(#34cec7c065)"><path fill="#ff914d" d="M 0.414062 0.714844 L 267.578125 0.714844 L 267.578125 104.972656 L 0.414062 104.972656 Z M 0.414062 0.714844 " fill-opacity="1" fill-rule="nonzero"/></g></g></g></g></g></g><g clip-path="url(#719ab02333)"><g clip-path="url(#40e2fc2d42)"><g transform="matrix(1, 0, 0, 1, 834, 776)"><g clip-path="url(#ad9491b93d)"><g clip-path="url(#ac149ab047)"><g clip-path="url(#c9c30f0e90)"><path fill="#ffde59" d="M 0.382812 0.78125 L 397.460938 0.78125 L 397.460938 105.042969 L 0.382812 105.042969 Z M 0.382812 0.78125 " fill-opacity="1" fill-rule="nonzero"/></g></g></g></g></g></g><g clip-path="url(#c8987c1a58)"><g clip-path="url(#bdebcc0e8d)"><g transform="matrix(1, 0, 0, 1, 885, 1007)"><g clip-path="url(#e437d30cc0)"><g clip-path="url(#ece7f2a259)"><g clip-path="url(#d5109f3f10)"><path fill="#ff914d" d="M 0.414062 0.289062 L 275.722656 0.289062 L 275.722656 104.550781 L 0.414062 104.550781 Z M 0.414062 0.289062 " fill-opacity="1" fill-rule="nonzero"/></g></g></g></g></g></g></g></g></svg>